<?xml version="1.0" standalone="no"?>
<!DOCTYPE svg PUBLIC "-//W3C//DTD SVG 1.1//EN" "http://www.w3.org/Graphics/SVG/1.1/DTD/svg11.dtd" >
<svg xmlns="http://www.w3.org/2000/svg" xmlns:xlink="http://www.w3.org/1999/xlink" version="1.1">
<metadata></metadata>
<defs>
<font id="aero_maticsbold" horiz-adv-x="1100" >
<font-face units-per-em="2048" ascent="1638" descent="-410" />
<missing-glyph horiz-adv-x="400" />
<glyph horiz-adv-x="0" />
<glyph horiz-adv-x="682" />
<glyph unicode=" "  horiz-adv-x="400" />
<glyph unicode="&#x09;" horiz-adv-x="400" />
<glyph unicode="&#xa0;" horiz-adv-x="400" />
<glyph unicode="!" horiz-adv-x="500" d="M100 0v300h300v-300h-300zM100 400v1000h300v-1000h-300z" />
<glyph unicode="&#x22;" horiz-adv-x="1000" d="M100 1100l100 300h300l-100 -300h-300zM500 1100l100 300h300l-100 -300h-300z" />
<glyph unicode="#" horiz-adv-x="1500" d="M100 350v250h235l60 200h-195v250h265l105 350h300l-105 -350h200l105 350h300l-105 -350h135v-250h-215l-60 -200h175v-250h-245l-105 -350h-300l105 350h-200l-105 -350h-300l105 350h-155zM635 600h190l60 200h-190z" />
<glyph unicode="$" horiz-adv-x="1200" d="M100 0v300h400v250q-400 0 -400 420q0 430 400 430v200h200v-200h400v-300h-400v-250q400 0 400 -430q0 -420 -400 -420v-200h-200v200h-400zM400 970q0 -120 100 -120v250q-100 0 -100 -130zM700 300q100 0 100 120q0 130 -100 130v-250z" />
<glyph unicode="%" horiz-adv-x="1900" d="M100 900v200q0 300 300 300h100q300 0 300 -300v-200q0 -300 -300 -300h-100q-300 0 -300 300zM375 920q0 -80 80 -80q70 0 70 80v160q0 80 -70 80q-80 0 -80 -80v-160zM500 0l590 1400h310l-590 -1400h-310zM1100 300v200q0 300 300 300h100q300 0 300 -300v-200 q0 -300 -300 -300h-100q-300 0 -300 300zM1375 320q0 -80 80 -80q70 0 70 80v160q0 80 -70 80q-80 0 -80 -80v-160z" />
<glyph unicode="&#x26;" horiz-adv-x="1300" d="M100 400q0 270 170 300q-170 30 -170 300q0 400 400 400h500v-300h-500q-100 0 -100 -100v-50q0 -100 100 -100h300v100h300v-100h100v-300h-100v-550h-600q-400 0 -400 400zM400 400q0 -100 100 -100h300v250h-300q-100 0 -100 -100v-50z" />
<glyph unicode="'" horiz-adv-x="600" d="M100 1100l100 300h300l-100 -300h-300z" />
<glyph unicode="(" horiz-adv-x="800" d="M100 700q0 500 280 900h320q-300 -400 -300 -900t300 -900h-320q-280 400 -280 900z" />
<glyph unicode=")" horiz-adv-x="800" d="M100 -200q300 400 300 900t-300 900h320q280 -400 280 -900t-280 -900h-320z" />
<glyph unicode="*" horiz-adv-x="762" d="M100 1121l32 120l169 -10v169h160l-10 -169l179 10l32 -120l-154 -36l88 -159l-109 -69l-106 135l-106 -135l-109 69l87 159z" />
<glyph unicode="+" horiz-adv-x="1000" d="M100 550v300h250v250h300v-250h250v-300h-250v-250h-300v250h-250z" />
<glyph unicode="," horiz-adv-x="600" d="M100 -100l100 300h300l-100 -300h-300z" />
<glyph unicode="-" horiz-adv-x="800" d="M100 550v300h600v-300h-600z" />
<glyph unicode="." horiz-adv-x="500" d="M100 0v300h300v-300h-300z" />
<glyph unicode="/" horiz-adv-x="1020" d="M100 -200l520 1800h300l-520 -1800h-300z" />
<glyph unicode="0" horiz-adv-x="1150" d="M100 400v600q0 400 400 400h150q400 0 400 -400v-600q0 -400 -400 -400h-150q-400 0 -400 400zM400 400q0 -100 100 -100h150q100 0 100 100v290zM400 710l350 290q0 100 -100 100h-150q-100 0 -100 -100v-290z" />
<glyph unicode="1" horiz-adv-x="700" d="M100 1100v300h500v-1400h-300v1100h-200z" />
<glyph unicode="2" horiz-adv-x="1150" d="M100 0v450q0 400 400 400h150q100 0 100 100v50q0 100 -100 100h-550v300h550q400 0 400 -400v-50q0 -400 -400 -400h-150q-100 0 -100 -100v-150h650v-300h-950z" />
<glyph unicode="3" d="M100 0v300h500q100 0 100 100v50q0 100 -100 100h-500v300h500q100 0 100 100v50q0 100 -100 100h-500v300h500q400 0 400 -400q0 -270 -170 -300q170 -30 170 -300q0 -400 -400 -400h-500z" />
<glyph unicode="4" horiz-adv-x="1200" d="M100 400v300l190 700h310l-190 -700h390v700h300v-1400h-300v400h-700z" />
<glyph unicode="5" horiz-adv-x="1150" d="M100 0v300h550q100 0 100 100v50q0 100 -100 100h-550v850h950v-300h-650v-250h250q400 0 400 -400v-50q0 -400 -400 -400h-550z" />
<glyph unicode="6" horiz-adv-x="1200" d="M100 400v500q0 500 500 500h400v-300h-400q-200 0 -200 -200v-50h300q400 0 400 -400v-50q0 -400 -400 -400h-200q-400 0 -400 400zM400 400q0 -100 100 -100h200q100 0 100 100v50q0 100 -100 100h-300v-150z" />
<glyph unicode="7" horiz-adv-x="1200" d="M100 1100v300h1000v-300l-460 -1100h-340l460 1100h-660z" />
<glyph unicode="8" horiz-adv-x="1200" d="M100 400q0 270 170 300q-170 30 -170 300q0 400 400 400h200q400 0 400 -400q0 -270 -170 -300q170 -30 170 -300q0 -400 -400 -400h-200q-400 0 -400 400zM400 400q0 -100 100 -100h200q100 0 100 100v50q0 100 -100 100h-200q-100 0 -100 -100v-50zM400 950 q0 -100 100 -100h200q100 0 100 100v50q0 100 -100 100h-200q-100 0 -100 -100v-50z" />
<glyph unicode="9" horiz-adv-x="1200" d="M100 950v50q0 400 400 400h200q400 0 400 -400v-500q0 -500 -500 -500h-400v300h400q200 0 200 200v50h-300q-400 0 -400 400zM400 950q0 -100 100 -100h300v150q0 100 -100 100h-200q-100 0 -100 -100v-50z" />
<glyph unicode=":" horiz-adv-x="500" d="M100 0v300h300v-300h-300zM100 700v300h300v-300h-300z" />
<glyph unicode=";" horiz-adv-x="600" d="M100 -100l100 300h300l-100 -300h-300zM200 700v300h300v-300h-300z" />
<glyph unicode="&#x3c;" horiz-adv-x="1000" d="M100 600v200l800 400v-300l-450 -200l450 -200v-300z" />
<glyph unicode="=" horiz-adv-x="800" d="M100 300v300h600v-300h-600zM100 800v300h600v-300h-600z" />
<glyph unicode="&#x3e;" horiz-adv-x="1000" d="M100 200v300l450 200l-450 200v300l800 -400v-200z" />
<glyph unicode="?" d="M100 1100v300h500q400 0 400 -400v-100q0 -400 -400 -400v-100h-300v400h300q100 0 100 100v100q0 100 -100 100h-500zM300 0v300h300v-300h-300z" />
<glyph unicode="@" horiz-adv-x="1500" d="M100 500v400q0 500 500 500h300q500 0 500 -500v-300q0 -300 -250 -300q-202 0 -239 115q-61 -115 -211 -115q-300 0 -300 300v200q0 300 300 300q150 0 200 -100v100h200v-500q0 -100 50 -100t50 100v300q0 300 -300 300h-300q-300 0 -300 -300v-400q0 -300 300 -300 h600v-200h-600q-500 0 -500 500zM600 600q0 -100 100 -100q150 0 200 100v200q-50 100 -200 100q-100 0 -100 -100v-200z" />
<glyph unicode="A" horiz-adv-x="1300" d="M0 0l420 1400h460l420 -1400h-300l-93 300h-514l-93 -300h-300zM484 600h332l-166 500z" />
<glyph unicode="B" horiz-adv-x="1200" d="M100 0v1400h600q400 0 400 -400q0 -270 -170 -300q170 -30 170 -300q0 -400 -400 -400h-600zM400 300h300q100 0 100 100v50q0 100 -100 100h-300v-250zM400 850h300q100 0 100 100v50q0 100 -100 100h-300v-250z" />
<glyph unicode="C" d="M100 400v600q0 400 400 400h500v-300h-500q-100 0 -100 -100v-600q0 -100 100 -100h500v-300h-500q-400 0 -400 400z" />
<glyph unicode="D" horiz-adv-x="1200" d="M100 0v1400h600q400 0 400 -400v-600q0 -400 -400 -400h-600zM400 300h300q100 0 100 100v600q0 100 -100 100h-300v-800z" />
<glyph unicode="E" d="M100 0v1400h900v-300h-600v-250h600v-300h-600v-250h600v-300h-900z" />
<glyph unicode="F" d="M100 0v1400h900v-300h-600v-250h600v-300h-600v-550h-300z" />
<glyph unicode="G" horiz-adv-x="1200" d="M100 400v600q0 400 400 400h600v-300h-600q-100 0 -100 -100v-600q0 -100 100 -100h200q100 0 100 100v150h-200v300h500v-450q0 -400 -400 -400h-200q-400 0 -400 400z" />
<glyph unicode="H" horiz-adv-x="1200" d="M100 0v1400h300v-550h400v550h300v-1400h-300v550h-400v-550h-300z" />
<glyph unicode="I" horiz-adv-x="500" d="M100 0v1400h300v-1400h-300z" />
<glyph unicode="J" horiz-adv-x="800" d="M100 0v300h200q100 0 100 100v1000h300v-1000q0 -400 -400 -400h-200z" />
<glyph unicode="K" horiz-adv-x="1150" d="M100 0v1400h300v-650l380 650h320l-420 -700l420 -700h-320l-380 650v-650h-300z" />
<glyph unicode="L" d="M100 0v1400h300v-1100h600v-300h-900z" />
<glyph unicode="M" horiz-adv-x="1700" d="M100 0v1400h420l330 -850l330 850h420v-1400h-300v850l-320 -850h-260l-320 850v-850h-300z" />
<glyph unicode="N" horiz-adv-x="1300" d="M100 0v1400h300l500 -850v850h300v-1400h-300l-500 850v-850h-300z" />
<glyph unicode="O" horiz-adv-x="1250" d="M100 400v600q0 400 400 400h250q400 0 400 -400v-600q0 -400 -400 -400h-250q-400 0 -400 400zM400 400q0 -100 100 -100h250q100 0 100 100v600q0 100 -100 100h-250q-100 0 -100 -100v-600z" />
<glyph unicode="P" horiz-adv-x="1200" d="M100 0v1400h600q400 0 400 -400v-100q0 -400 -400 -400h-300v-500h-300zM400 800h300q100 0 100 100v100q0 100 -100 100h-300v-300z" />
<glyph unicode="Q" horiz-adv-x="1250" d="M100 400v600q0 400 400 400h250q400 0 400 -400v-600q0 -300 -250 -400l70 -200h-200l-80 200h-190q-400 0 -400 400zM400 400q0 -100 100 -100h80l-70 200h200l70 -200q70 20 70 100v600q0 100 -100 100h-250q-100 0 -100 -100v-600z" />
<glyph unicode="R" horiz-adv-x="1200" d="M100 0v1400h600q400 0 400 -400v-100q0 -245 -184 -346l184 -554h-300l-200 500h-200v-500h-300zM400 800h300q100 0 100 100v100q0 100 -100 100h-300v-300z" />
<glyph unicode="S" horiz-adv-x="1200" d="M100 0v300h600q100 0 100 100v50q0 100 -100 100h-200q-400 0 -400 400v50q0 400 400 400h600v-300h-600q-100 0 -100 -100v-50q0 -100 100 -100h200q400 0 400 -400v-50q0 -400 -400 -400h-600z" />
<glyph unicode="T" horiz-adv-x="1200" d="M100 1100v300h1000v-300h-350v-1100h-300v1100h-350z" />
<glyph unicode="U" horiz-adv-x="1200" d="M100 400v1000h300v-1000q0 -100 100 -100h200q100 0 100 100v1000h300v-1000q0 -400 -400 -400h-200q-400 0 -400 400z" />
<glyph unicode="V" horiz-adv-x="1200" d="M0 1400h300l300 -1100l300 1100h300l-370 -1400h-460z" />
<glyph unicode="W" horiz-adv-x="1800" d="M0 1400h300l200 -1000l200 1000h400l200 -1000l200 1000h300l-270 -1400h-460l-170 881l-170 -881h-460z" />
<glyph unicode="X" horiz-adv-x="1400" d="M100 0l365 700l-365 700h330l270 -496l270 496h330l-365 -700l365 -700h-330l-270 495l-270 -495h-330z" />
<glyph unicode="Y" horiz-adv-x="1200" d="M0 1400h310l290 -500l290 500h310l-450 -800v-600h-300v600z" />
<glyph unicode="Z" horiz-adv-x="1200" d="M100 0v300l630 800h-630v300h1000v-300l-630 -800h630v-300h-1000z" />
<glyph unicode="[" horiz-adv-x="700" d="M100 -200v1800h500v-300h-200v-1200h200v-300h-500z" />
<glyph unicode="\" horiz-adv-x="1020" d="M100 1600h300l520 -1800h-300z" />
<glyph unicode="]" horiz-adv-x="700" d="M100 100h200v1200h-200v300h500v-1800h-500v300z" />
<glyph unicode="^" horiz-adv-x="1200" d="M100 700l350 700h300l350 -700h-300l-200 450l-200 -450h-300z" />
<glyph unicode="_" horiz-adv-x="800" d="M0 -200h800v-200h-800v200z" />
<glyph unicode="`" horiz-adv-x="600" d="M100 1400h310l90 -300h-310z" />
<glyph unicode="a" d="M100 310q0 310 300 310h100q150 0 200 -80q0 180 -200 180h-300v280h300q500 0 500 -460v-540h-270l-30 80q-50 -80 -200 -80h-100q-300 0 -300 310zM400 320q0 -80 100 -80q150 0 200 50v60q-50 50 -200 50q-100 0 -100 -80z" />
<glyph unicode="b" d="M100 0v1400h300v-480q50 80 200 80q400 0 400 -400v-200q0 -400 -400 -400q-150 0 -200 80l-30 -80h-270zM400 350q50 -50 200 -50q100 0 100 100v200q0 100 -100 100q-150 0 -200 -50v-300z" />
<glyph unicode="c" horiz-adv-x="1000" d="M100 400v200q0 400 400 400h400v-300h-400q-100 0 -100 -100v-200q0 -100 100 -100h400v-300h-400q-400 0 -400 400z" />
<glyph unicode="d" d="M100 400v200q0 400 400 400q150 0 200 -80v480h300v-1400h-270l-30 80q-50 -80 -200 -80q-400 0 -400 400zM400 400q0 -100 100 -100q150 0 200 50v300q-50 50 -200 50q-100 0 -100 -100v-200z" />
<glyph unicode="e" d="M100 400v200q0 400 400 400h100q400 0 400 -400v-220h-600v-30q0 -100 100 -100h450v-250h-450q-400 0 -400 400zM400 600h300v40q0 100 -100 100h-100q-100 0 -100 -100v-40z" />
<glyph unicode="f" horiz-adv-x="900" d="M100 700v300h150q0 400 400 400h150v-300h-150q-100 0 -100 -100h250v-300h-250v-700h-300v700h-150z" />
<glyph unicode="g" d="M100 400v200q0 400 400 400q140 0 200 -80l30 80h270v-900q0 -500 -500 -500h-300v300h300q200 0 200 200v-20q-60 -80 -200 -80q-400 0 -400 400zM400 400q0 -100 100 -100q140 0 200 50v300q-60 50 -200 50q-100 0 -100 -100v-200z" />
<glyph unicode="h" d="M100 0v1400h300v-480q50 80 200 80q400 0 400 -400v-600h-300v600q0 100 -100 100q-150 0 -200 -50v-650h-300z" />
<glyph unicode="i" horiz-adv-x="500" d="M100 0v1000h300v-1000h-300zM100 1100v300h300v-300h-300z" />
<glyph unicode="j" horiz-adv-x="500" d="M-100 -100h100q100 0 100 100v1000h300v-1000q0 -400 -400 -400h-100v300zM100 1100v300h300v-300h-300z" />
<glyph unicode="k" d="M100 0v1400h300v-850l270 450h330l-310 -500l310 -500h-330l-270 450v-450h-300z" />
<glyph unicode="l" horiz-adv-x="500" d="M100 0v1400h300v-1400h-300z" />
<glyph unicode="m" horiz-adv-x="1700" d="M100 0v1000h270l30 -100q50 100 200 100q173 0 256 -130q118 130 344 130q400 0 400 -350v-650h-300v600q0 100 -150 100t-150 -100v-600h-300v610q0 90 -130 90q-120 0 -170 -100v-600h-300z" />
<glyph unicode="n" d="M100 0v1000h270l30 -80q50 80 200 80q400 0 400 -400v-600h-300v600q0 100 -100 100q-150 0 -200 -50v-650h-300z" />
<glyph unicode="o" d="M100 400v200q0 400 400 400h100q400 0 400 -400v-200q0 -400 -400 -400h-100q-400 0 -400 400zM400 400q0 -100 100 -100h100q100 0 100 100v200q0 90 -100 90h-100q-100 0 -100 -90v-200z" />
<glyph unicode="p" d="M100 -400v1400h270l30 -80q50 80 200 80q400 0 400 -400v-200q0 -400 -400 -400q-150 0 -200 80v-480h-300zM400 350q50 -50 200 -50q100 0 100 100v200q0 100 -100 100q-150 0 -200 -50v-300z" />
<glyph unicode="q" d="M100 400v200q0 400 400 400q150 0 200 -80l30 80h270v-1400h-300v480q-50 -80 -200 -80q-400 0 -400 400zM400 400q0 -100 100 -100q150 0 200 50v300q-50 50 -200 50q-100 0 -100 -100v-200z" />
<glyph unicode="r" horiz-adv-x="750" d="M100 0v1000h270l30 -80q50 80 200 80h100v-300h-100q-150 0 -200 -50v-650h-300z" />
<glyph unicode="s" horiz-adv-x="1050" d="M100 0v250h480q70 0 70 60q0 70 -70 70h-180q-300 0 -300 270v80q0 270 300 270h500v-250h-430q-70 0 -70 -60q0 -50 70 -50h180q300 0 300 -290v-80q0 -270 -300 -270h-550z" />
<glyph unicode="t" horiz-adv-x="900" d="M100 700v300h150v300l300 100v-400h250v-300h-250v-300q0 -100 100 -100h150v-300h-150q-400 0 -400 400v300h-150z" />
<glyph unicode="u" d="M100 400v600h300v-600q0 -100 100 -100q150 0 200 50v650h300v-1000h-270l-30 80q-50 -80 -200 -80q-400 0 -400 400z" />
<glyph unicode="v" d="M50 1000h300l200 -750l200 750h300l-280 -1000h-440z" />
<glyph unicode="w" horiz-adv-x="1500" d="M50 1000h300l110 -680l120 680h340l120 -690l110 690h300l-230 -1000h-350l-120 632l-120 -632h-350z" />
<glyph unicode="x" horiz-adv-x="1200" d="M100 0l260 500l-260 500h320l180 -362l180 362h320l-260 -500l260 -500h-320l-180 362l-180 -362h-320z" />
<glyph unicode="y" d="M100 400v600h300v-600q0 -100 100 -100q140 0 200 50v650h300v-1000q0 -400 -400 -400h-400v300h300q200 0 200 100v80q-60 -80 -200 -80q-400 0 -400 400z" />
<glyph unicode="z" horiz-adv-x="1000" d="M100 0v300l420 400h-420v300h800v-300l-420 -400h420v-300h-800z" />
<glyph unicode="{" horiz-adv-x="900" d="M100 550v300q200 0 200 150v100q0 500 500 500v-300q-200 0 -200 -200v-150q0 -220 -200 -250q200 -30 200 -250v-150q0 -200 200 -200v-300q-500 0 -500 500v100q0 150 -200 150z" />
<glyph unicode="|" horiz-adv-x="500" d="M100 -200v1800h300v-1800h-300z" />
<glyph unicode="}" horiz-adv-x="900" d="M100 100q200 0 200 200v150q0 220 200 250q-200 30 -200 250v150q0 200 -200 200v300q500 0 500 -500v-100q0 -150 200 -150v-300q-200 0 -200 -150v-100q0 -500 -500 -500v300z" />
<glyph unicode="~" horiz-adv-x="1200" d="M100 500q0 400 300 400q130 0 220 -100t190 -100q90 0 90 200h200q0 -400 -300 -400q-130 0 -220 95t-190 95q-90 0 -90 -190h-200z" />
<glyph unicode="&#xa1;" horiz-adv-x="500" d="M100 -400v1000h300v-1000h-300zM100 700v300h300v-300h-300z" />
<glyph unicode="&#xa2;" horiz-adv-x="1000" d="M100 600v200q0 400 400 400h50v200h100v-200h250v-300h-250v-400h250v-300h-250v-200h-100v200h-50q-400 0 -400 400zM400 600q0 -100 100 -100h50v400h-50q-100 0 -100 -100v-200z" />
<glyph unicode="&#xa3;" d="M100 0v300h150v250h-150v300h150v150q0 400 400 400h350v-300h-350q-100 0 -100 -100v-150h450v-300h-450v-250h450v-300h-900z" />
<glyph unicode="&#xa5;" horiz-adv-x="1200" d="M0 1400h310l290 -500l290 500h310l-394 -700h244v-200h-300v-150h300v-200h-300v-150h-300v150h-300v200h300v150h-300v200h243z" />
<glyph unicode="&#xa6;" horiz-adv-x="500" d="M100 -200v800h300v-800h-300zM100 800v800h300v-800h-300z" />
<glyph unicode="&#xa8;" horiz-adv-x="1000" d="M100 1100v300h300v-300h-300zM600 1100v300h300v-300h-300z" />
<glyph unicode="&#xa9;" horiz-adv-x="1395" d="M100 698q0 247 175 422t423 175q247 0 422 -175t175 -422q0 -248 -175 -423t-422 -175q-248 0 -423 175t-175 423zM241 698q0 -189 134 -323t323 -134t323 134t134 323t-134 323t-323 134t-323 -134t-134 -323zM381 698q0 131 93 223.5t224 92.5t223 -93q68 -67 86 -154 h-147q-12 30 -38 55q-51 52 -124 52t-124.5 -51.5t-51.5 -124.5t51.5 -124.5t124.5 -51.5t124 51q28 28 40 61h146q-18 -91 -87 -160q-92 -93 -223 -93t-224 93t-93 224z" />
<glyph unicode="&#xab;" horiz-adv-x="1328" d="M100 650l280 450h320l-280 -450l280 -450h-320zM628 650l280 450h320l-280 -450l280 -450h-320z" />
<glyph unicode="&#xac;" horiz-adv-x="1000" d="M100 550v300h800v-550h-300v250h-500z" />
<glyph unicode="&#xad;" horiz-adv-x="800" d="M100 550v300h600v-300h-600z" />
<glyph unicode="&#xae;" horiz-adv-x="1395" d="M100 693q0 247 175 422t423 175q247 0 422 -175t175 -422q0 -248 -175 -423t-422 -175q-248 0 -423 175t-175 423zM241 693q0 -189 134 -323t323 -134t323 134t134 323t-134 323t-323 134t-323 -134t-134 -323zM446 376v633h302q211 0 211 -211q0 -136 -96 -185l96 -237 h-152l-82 211h-138v-211h-141zM587 728h161q70 0 70 70q0 71 -70 71h-161v-141z" />
<glyph unicode="&#xb0;" horiz-adv-x="620" d="M100 1200q0 87 61.5 148.5t148.5 61.5t148.5 -61.5t61.5 -148.5t-61.5 -148.5t-148.5 -61.5t-148.5 61.5t-61.5 148.5zM220 1200q0 -37 26.5 -63.5t63.5 -26.5t63.5 26.5t26.5 63.5t-26.5 63.5t-63.5 26.5t-63.5 -26.5t-26.5 -63.5z" />
<glyph unicode="&#xb1;" horiz-adv-x="1000" d="M100 3v300h800v-300h-800zM100 700v300h250v250h300v-250h250v-300h-250v-250h-300v250h-250z" />
<glyph unicode="&#xb4;" horiz-adv-x="600" d="M100 1100l90 300h310l-90 -300h-310z" />
<glyph unicode="&#xb5;" horiz-adv-x="1200" d="M100 -446v1446h300v-600q50 -100 200 -100t200 100v600h300v-1000h-300v100q-50 -100 -200 -100t-200 84v-530h-300z" />
<glyph unicode="&#xb6;" horiz-adv-x="1500" d="M100 900q0 500 500 500h800v-1800h-300v1500h-200v-1500h-300v800q-500 0 -500 500z" />
<glyph unicode="&#xb7;" horiz-adv-x="500" d="M100 550v300h300v-300h-300z" />
<glyph unicode="&#xb8;" horiz-adv-x="600" d="M100 -270q80 -30 180 -30q90 0 90 60t-170 60v80q17 1 32 1q268 0 268 -131q0 -200 -220 -200q-100 0 -180 30v130z" />
<glyph unicode="&#xbb;" horiz-adv-x="1328" d="M100 200l280 450l-280 450h320l280 -450l-280 -450h-320zM628 200l280 450l-280 450h320l280 -450l-280 -450h-320z" />
<glyph unicode="&#xbf;" d="M100 0v100q0 400 400 400v100h300v-400h-300q-100 0 -100 -100v-100q0 -100 100 -100h500v-300h-500q-400 0 -400 400zM500 700v300h300v-300h-300z" />
<glyph unicode="&#xc0;" horiz-adv-x="1300" d="M0 0l420 1400h460l420 -1400h-300l-93 300h-514l-93 -300h-300zM383 1800h310l90 -300h-310zM484 600h332l-166 500z" />
<glyph unicode="&#xc1;" horiz-adv-x="1300" d="M0 0l420 1400h460l420 -1400h-300l-93 300h-514l-93 -300h-300zM484 600h332l-166 500zM517 1500l90 300h310l-90 -300h-310z" />
<glyph unicode="&#xc2;" horiz-adv-x="1300" d="M0 0l420 1400h460l420 -1400h-300l-93 300h-514l-93 -300h-300zM350 1500l160 300h280l160 -300h-200l-100 200l-100 -200h-200zM484 600h332l-166 500z" />
<glyph unicode="&#xc3;" horiz-adv-x="1300" d="M0 0l420 1400h460l420 -1400h-300l-93 300h-514l-93 -300h-300zM280 1500q0 250 190 250q100 0 180 -40t150 -40t70 80h150q0 -250 -190 -250q-100 0 -180 40t-150 40t-70 -80h-150zM484 600h332l-166 500z" />
<glyph unicode="&#xc4;" horiz-adv-x="1300" d="M0 0l420 1400h460l420 -1400h-300l-93 300h-514l-93 -300h-300zM250 1500v300h300v-300h-300zM484 600h332l-166 500zM750 1500v300h300v-300h-300z" />
<glyph unicode="&#xc5;" horiz-adv-x="1300" d="M0 0l420 1400h460l420 -1400h-300l-93 300h-514l-93 -300h-300zM440 1700q0 87 61.5 148.5t148.5 61.5t148.5 -61.5t61.5 -148.5t-61.5 -148.5t-148.5 -61.5t-148.5 61.5t-61.5 148.5zM484 600h332l-166 500zM560 1700q0 -37 26.5 -63.5t63.5 -26.5t63.5 26.5t26.5 63.5 t-26.5 63.5t-63.5 26.5t-63.5 -26.5t-26.5 -63.5z" />
<glyph unicode="&#xc6;" horiz-adv-x="1700" d="M0 0l420 1400h1180v-300h-500v-250h500v-300h-500v-250h500v-300h-800v300h-407l-93 -300h-300zM494 600h306v500h-150z" />
<glyph unicode="&#xc7;" d="M100 400v600q0 400 400 400h500v-300h-500q-100 0 -100 -100v-600q0 -100 100 -100h500v-300h-500q-400 0 -400 400zM400 -270q80 -30 180 -30q90 0 90 60t-170 60v80q17 1 32 1q268 0 268 -131q0 -200 -220 -200q-100 0 -180 30v130z" />
<glyph unicode="&#xc8;" d="M100 0v1400h900v-300h-600v-250h600v-300h-600v-250h600v-300h-900zM283 1800h310l90 -300h-310z" />
<glyph unicode="&#xc9;" d="M100 0v1400h900v-300h-600v-250h600v-300h-600v-250h600v-300h-900zM417 1500l90 300h310l-90 -300h-310z" />
<glyph unicode="&#xca;" d="M100 0v1400h900v-300h-600v-250h600v-300h-600v-250h600v-300h-900zM250 1500l160 300h280l160 -300h-200l-100 200l-100 -200h-200z" />
<glyph unicode="&#xcb;" d="M100 0v1400h900v-300h-600v-250h600v-300h-600v-250h600v-300h-900zM150 1500v300h300v-300h-300zM650 1500v300h300v-300h-300z" />
<glyph unicode="&#xcc;" horiz-adv-x="500" d="M-15 1800h310l90 -300h-310zM100 0v1400h300v-1400h-300z" />
<glyph unicode="&#xcd;" horiz-adv-x="500" d="M100 0v1400h300v-1400h-300zM117 1500l90 300h310l-90 -300h-310z" />
<glyph unicode="&#xce;" horiz-adv-x="500" d="M-48 1500l160 300h280l160 -300h-200l-100 200l-100 -200h-200zM100 0v1400h300v-1400h-300z" />
<glyph unicode="&#xcf;" horiz-adv-x="500" d="M-148 1500v300h300v-300h-300zM100 0v1400h300v-1400h-300zM352 1500v300h300v-300h-300z" />
<glyph unicode="&#xd0;" horiz-adv-x="1200" d="M-100 600v200h200v600h600q400 0 400 -400v-600q0 -400 -400 -400h-600v600h-200zM400 300h300q100 0 100 100v600q0 100 -100 100h-300v-300h200v-200h-200v-300z" />
<glyph unicode="&#xd1;" horiz-adv-x="1300" d="M100 0v1400h300l500 -850v850h300v-1400h-300l-500 850v-850h-300zM280 1500q0 250 190 250q100 0 180 -40t150 -40t70 80h150q0 -250 -190 -250q-100 0 -180 40t-150 40t-70 -80h-150z" />
<glyph unicode="&#xd2;" horiz-adv-x="1250" d="M100 400v600q0 400 400 400h250q400 0 400 -400v-600q0 -400 -400 -400h-250q-400 0 -400 400zM358 1800h310l90 -300h-310zM400 400q0 -100 100 -100h250q100 0 100 100v600q0 100 -100 100h-250q-100 0 -100 -100v-600z" />
<glyph unicode="&#xd3;" horiz-adv-x="1250" d="M100 400v600q0 400 400 400h250q400 0 400 -400v-600q0 -400 -400 -400h-250q-400 0 -400 400zM400 400q0 -100 100 -100h250q100 0 100 100v600q0 100 -100 100h-250q-100 0 -100 -100v-600zM492 1500l90 300h310l-90 -300h-310z" />
<glyph unicode="&#xd4;" horiz-adv-x="1250" d="M100 400v600q0 400 400 400h250q400 0 400 -400v-600q0 -400 -400 -400h-250q-400 0 -400 400zM325 1500l160 300h280l160 -300h-200l-100 200l-100 -200h-200zM400 400q0 -100 100 -100h250q100 0 100 100v600q0 100 -100 100h-250q-100 0 -100 -100v-600z" />
<glyph unicode="&#xd5;" horiz-adv-x="1250" d="M100 400v600q0 400 400 400h250q400 0 400 -400v-600q0 -400 -400 -400h-250q-400 0 -400 400zM255 1500q0 250 190 250q100 0 180 -40t150 -40t70 80h150q0 -250 -190 -250q-100 0 -180 40t-150 40t-70 -80h-150zM400 400q0 -100 100 -100h250q100 0 100 100v600 q0 100 -100 100h-250q-100 0 -100 -100v-600z" />
<glyph unicode="&#xd6;" horiz-adv-x="1250" d="M100 400v600q0 400 400 400h250q400 0 400 -400v-600q0 -400 -400 -400h-250q-400 0 -400 400zM225 1500v300h300v-300h-300zM400 400q0 -100 100 -100h250q100 0 100 100v600q0 100 -100 100h-250q-100 0 -100 -100v-600zM725 1500v300h300v-300h-300z" />
<glyph unicode="&#xd7;" horiz-adv-x="1119" d="M100 453l247 247l-247 247l212 213l248 -248l247 248l212 -213l-247 -247l247 -247l-212 -213l-247 248l-248 -248z" />
<glyph unicode="&#xd8;" horiz-adv-x="1250" d="M100 300v800q0 300 300 300h352l58 200h150l-59 -203q249 -24 249 -297v-800q0 -300 -300 -300h-352l-58 -200h-150l58 202q-248 25 -248 298zM400 400q0 -62 38 -86l227 786h-165q-100 0 -100 -100v-600zM584 300h166q100 0 100 100v600l-39 85z" />
<glyph unicode="&#xd9;" horiz-adv-x="1200" d="M100 400v1000h300v-1000q0 -100 100 -100h200q100 0 100 100v1000h300v-1000q0 -400 -400 -400h-200q-400 0 -400 400zM333 1800h310l90 -300h-310z" />
<glyph unicode="&#xda;" horiz-adv-x="1200" d="M100 400v1000h300v-1000q0 -100 100 -100h200q100 0 100 100v1000h300v-1000q0 -400 -400 -400h-200q-400 0 -400 400zM467 1500l90 300h310l-90 -300h-310z" />
<glyph unicode="&#xdb;" horiz-adv-x="1200" d="M100 400v1000h300v-1000q0 -100 100 -100h200q100 0 100 100v1000h300v-1000q0 -400 -400 -400h-200q-400 0 -400 400zM300 1500l160 300h280l160 -300h-200l-100 200l-100 -200h-200z" />
<glyph unicode="&#xdc;" horiz-adv-x="1200" d="M100 400v1000h300v-1000q0 -100 100 -100h200q100 0 100 100v1000h300v-1000q0 -400 -400 -400h-200q-400 0 -400 400zM200 1500v300h300v-300h-300zM700 1500v300h300v-300h-300z" />
<glyph unicode="&#xdd;" horiz-adv-x="1200" d="M0 1400h310l290 -500l290 500h310l-450 -800v-600h-300v600zM467 1500l90 300h310l-90 -300h-310z" />
<glyph unicode="&#xde;" horiz-adv-x="1200" d="M100 0v1400h300v-230h300q400 0 400 -400v-150q0 -400 -400 -400h-300v-220h-300zM400 520h300q100 0 100 100v150q0 100 -100 100h-300v-350z" />
<glyph unicode="&#xdf;" horiz-adv-x="1200" d="M100 0v1000q0 400 400 400h200q400 0 400 -400q0 -270 -170 -300q170 -30 170 -300q0 -400 -400 -400h-200v300h200q100 0 100 100v50q0 100 -100 100h-200v300h200q100 0 100 100v50q0 100 -100 100h-200q-100 0 -100 -100v-1000h-300z" />
<glyph unicode="&#xe0;" d="M100 310q0 310 300 310h100q150 0 200 -80q0 180 -200 180h-300v280h300q500 0 500 -460v-540h-270l-30 80q-50 -80 -200 -80h-100q-300 0 -300 310zM283 1400h310l90 -300h-310zM400 320q0 -80 100 -80q150 0 200 50v60q-50 50 -200 50q-100 0 -100 -80z" />
<glyph unicode="&#xe1;" d="M100 310q0 310 300 310h100q150 0 200 -80q0 180 -200 180h-300v280h300q500 0 500 -460v-540h-270l-30 80q-50 -80 -200 -80h-100q-300 0 -300 310zM400 320q0 -80 100 -80q150 0 200 50v60q-50 50 -200 50q-100 0 -100 -80zM417 1100l90 300h310l-90 -300h-310z" />
<glyph unicode="&#xe2;" d="M100 310q0 310 300 310h100q150 0 200 -80q0 180 -200 180h-300v280h300q500 0 500 -460v-540h-270l-30 80q-50 -80 -200 -80h-100q-300 0 -300 310zM250 1100l160 300h280l160 -300h-200l-100 200l-100 -200h-200zM400 320q0 -80 100 -80q150 0 200 50v60 q-50 50 -200 50q-100 0 -100 -80z" />
<glyph unicode="&#xe3;" d="M100 310q0 310 300 310h100q150 0 200 -80q0 180 -200 180h-300v280h300q500 0 500 -460v-540h-270l-30 80q-50 -80 -200 -80h-100q-300 0 -300 310zM180 1100q0 250 190 250q100 0 180 -40t150 -40t70 80h150q0 -250 -190 -250q-100 0 -180 40t-150 40t-70 -80h-150z M400 320q0 -80 100 -80q150 0 200 50v60q-50 50 -200 50q-100 0 -100 -80z" />
<glyph unicode="&#xe4;" d="M100 310q0 310 300 310h100q150 0 200 -80q0 180 -200 180h-300v280h300q500 0 500 -460v-540h-270l-30 80q-50 -80 -200 -80h-100q-300 0 -300 310zM150 1100v300h300v-300h-300zM400 320q0 -80 100 -80q150 0 200 50v60q-50 50 -200 50q-100 0 -100 -80zM650 1100v300 h300v-300h-300z" />
<glyph unicode="&#xe5;" d="M100 310q0 310 300 310h100q150 0 200 -80q0 180 -200 180h-300v280h300q500 0 500 -460v-540h-270l-30 80q-50 -80 -200 -80h-100q-300 0 -300 310zM340 1300q0 87 61.5 148.5t148.5 61.5t148.5 -61.5t61.5 -148.5t-61.5 -148.5t-148.5 -61.5t-148.5 61.5t-61.5 148.5z M400 320q0 -80 100 -80q150 0 200 50v60q-50 50 -200 50q-100 0 -100 -80zM460 1300q0 -37 26.5 -63.5t63.5 -26.5t63.5 26.5t26.5 63.5t-26.5 63.5t-63.5 26.5t-63.5 -26.5t-26.5 -63.5z" />
<glyph unicode="&#xe6;" horiz-adv-x="1655" d="M100 310q0 310 300 310h100q150 0 200 -80q0 180 -200 180h-300v280h300q217 0 316 -136q85 136 289 136h50q400 0 400 -400v-220h-550v-30q0 -100 100 -100h400v-250h-400q-192 0 -278 119q-134 -119 -327 -119h-100q-300 0 -300 310zM400 320q0 -80 100 -80 q150 0 200 50v60q-50 50 -200 50q-100 0 -100 -80zM1005 600h250v40q0 100 -100 100h-50q-100 0 -100 -100v-40z" />
<glyph unicode="&#xe7;" horiz-adv-x="1000" d="M100 400v200q0 400 400 400h400v-300h-400q-100 0 -100 -100v-200q0 -100 100 -100h400v-300h-400q-400 0 -400 400zM400 -270q80 -30 180 -30q90 0 90 60t-170 60v80q17 1 32 1q268 0 268 -131q0 -200 -220 -200q-100 0 -180 30v130z" />
<glyph unicode="&#xe8;" d="M100 400v200q0 400 400 400h100q400 0 400 -400v-220h-600v-30q0 -100 100 -100h450v-250h-450q-400 0 -400 400zM283 1400h310l90 -300h-310zM400 600h300v40q0 100 -100 100h-100q-100 0 -100 -100v-40z" />
<glyph unicode="&#xe9;" d="M100 400v200q0 400 400 400h100q400 0 400 -400v-220h-600v-30q0 -100 100 -100h450v-250h-450q-400 0 -400 400zM400 600h300v40q0 100 -100 100h-100q-100 0 -100 -100v-40zM417 1100l90 300h310l-90 -300h-310z" />
<glyph unicode="&#xea;" d="M100 400v200q0 400 400 400h100q400 0 400 -400v-220h-600v-30q0 -100 100 -100h450v-250h-450q-400 0 -400 400zM250 1100l160 300h280l160 -300h-200l-100 200l-100 -200h-200zM400 600h300v40q0 100 -100 100h-100q-100 0 -100 -100v-40z" />
<glyph unicode="&#xeb;" d="M100 400v200q0 400 400 400h100q400 0 400 -400v-220h-600v-30q0 -100 100 -100h450v-250h-450q-400 0 -400 400zM150 1100v300h300v-300h-300zM400 600h300v40q0 100 -100 100h-100q-100 0 -100 -100v-40zM650 1100v300h300v-300h-300z" />
<glyph unicode="&#xec;" horiz-adv-x="500" d="M-15 1400h310l90 -300h-310zM100 0v1000h300v-1000h-300z" />
<glyph unicode="&#xed;" horiz-adv-x="500" d="M100 0v1000h300v-1000h-300zM117 1100l90 300h310l-90 -300h-310z" />
<glyph unicode="&#xee;" horiz-adv-x="500" d="M-48 1100l160 300h280l160 -300h-200l-100 200l-100 -200h-200zM100 0v1000h300v-1000h-300z" />
<glyph unicode="&#xef;" horiz-adv-x="500" d="M-148 1100v300h300v-300h-300zM100 0v1000h300v-1000h-300zM352 1100v300h300v-300h-300z" />
<glyph unicode="&#xf0;" d="M100 400v200q0 400 400 400q150 0 200 -80v180h-200v200h200v100h300v-100h200v-200h-200v-1100h-270l-30 80q-50 -80 -200 -80q-400 0 -400 400zM400 400q0 -100 100 -100q150 0 200 50v300q-50 50 -200 50q-100 0 -100 -100v-200z" />
<glyph unicode="&#xf1;" d="M100 0v1000h270l30 -80q50 80 200 80q400 0 400 -400v-600h-300v600q0 100 -100 100q-150 0 -200 -50v-650h-300zM180 1100q0 250 190 250q100 0 180 -40t150 -40t70 80h150q0 -250 -190 -250q-100 0 -180 40t-150 40t-70 -80h-150z" />
<glyph unicode="&#xf2;" d="M100 400v200q0 400 400 400h100q400 0 400 -400v-200q0 -400 -400 -400h-100q-400 0 -400 400zM283 1400h310l90 -300h-310zM400 400q0 -100 100 -100h100q100 0 100 100v200q0 90 -100 90h-100q-100 0 -100 -90v-200z" />
<glyph unicode="&#xf3;" d="M100 400v200q0 400 400 400h100q400 0 400 -400v-200q0 -400 -400 -400h-100q-400 0 -400 400zM400 400q0 -100 100 -100h100q100 0 100 100v200q0 90 -100 90h-100q-100 0 -100 -90v-200zM417 1100l90 300h310l-90 -300h-310z" />
<glyph unicode="&#xf4;" d="M100 400v200q0 400 400 400h100q400 0 400 -400v-200q0 -400 -400 -400h-100q-400 0 -400 400zM250 1100l160 300h280l160 -300h-200l-100 200l-100 -200h-200zM400 400q0 -100 100 -100h100q100 0 100 100v200q0 90 -100 90h-100q-100 0 -100 -90v-200z" />
<glyph unicode="&#xf5;" d="M100 400v200q0 400 400 400h100q400 0 400 -400v-200q0 -400 -400 -400h-100q-400 0 -400 400zM180 1100q0 250 190 250q100 0 180 -40t150 -40t70 80h150q0 -250 -190 -250q-100 0 -180 40t-150 40t-70 -80h-150zM400 400q0 -100 100 -100h100q100 0 100 100v200 q0 90 -100 90h-100q-100 0 -100 -90v-200z" />
<glyph unicode="&#xf6;" d="M100 400v200q0 400 400 400h100q400 0 400 -400v-200q0 -400 -400 -400h-100q-400 0 -400 400zM150 1100v300h300v-300h-300zM400 400q0 -100 100 -100h100q100 0 100 100v200q0 90 -100 90h-100q-100 0 -100 -90v-200zM650 1100v300h300v-300h-300z" />
<glyph unicode="&#xf7;" horiz-adv-x="1000" d="M100 600v200h800v-200h-800zM400 200v200h200v-200h-200zM400 1000v200h200v-200h-200z" />
<glyph unicode="&#xf8;" d="M100 400v200q0 400 400 400h100q31 0 59 -3l76 203h150l-87 -234q202 -82 202 -366v-200q0 -400 -400 -400h-100q-31 0 -60 2l-75 -202h-150l86 233q-201 83 -201 367zM400 400q0 -39 14 -62l131 352h-45q-100 0 -100 -90v-200zM550 300h50q100 0 100 100v200 q0 36 -17 58z" />
<glyph unicode="&#xf9;" d="M100 400v600h300v-600q0 -100 100 -100q150 0 200 50v650h300v-1000h-270l-30 80q-50 -80 -200 -80q-400 0 -400 400zM283 1400h310l90 -300h-310z" />
<glyph unicode="&#xfa;" d="M100 400v600h300v-600q0 -100 100 -100q150 0 200 50v650h300v-1000h-270l-30 80q-50 -80 -200 -80q-400 0 -400 400zM417 1100l90 300h310l-90 -300h-310z" />
<glyph unicode="&#xfb;" d="M100 400v600h300v-600q0 -100 100 -100q150 0 200 50v650h300v-1000h-270l-30 80q-50 -80 -200 -80q-400 0 -400 400zM250 1100l160 300h280l160 -300h-200l-100 200l-100 -200h-200z" />
<glyph unicode="&#xfc;" d="M100 400v600h300v-600q0 -100 100 -100q150 0 200 50v650h300v-1000h-270l-30 80q-50 -80 -200 -80q-400 0 -400 400zM150 1100v300h300v-300h-300zM650 1100v300h300v-300h-300z" />
<glyph unicode="&#xfd;" d="M100 400v600h300v-600q0 -100 100 -100q140 0 200 50v650h300v-1000q0 -400 -400 -400h-400v300h300q200 0 200 100v80q-60 -80 -200 -80q-400 0 -400 400zM417 1100l90 300h310l-90 -300h-310z" />
<glyph unicode="&#xfe;" d="M100 -400v1800h300v-480q50 80 200 80q400 0 400 -400v-200q0 -400 -400 -400q-150 0 -200 80v-480h-300zM400 350q50 -50 200 -50q100 0 100 100v200q0 100 -100 100q-150 0 -200 -50v-300z" />
<glyph unicode="&#xff;" d="M100 400v600h300v-600q0 -100 100 -100q140 0 200 50v650h300v-1000q0 -400 -400 -400h-400v300h300q200 0 200 100v80q-60 -80 -200 -80q-400 0 -400 400zM150 1100v300h300v-300h-300zM650 1100v300h300v-300h-300z" />
<glyph unicode="&#x152;" horiz-adv-x="1800" d="M100 400v600q0 400 400 400h150q138 0 200 -92v92h850v-300h-550v-250h550v-300h-550v-250h550v-300h-850v91q-62 -91 -200 -91h-150q-400 0 -400 400zM400 400q0 -100 100 -100h150q200 0 200 100v600q0 100 -200 100h-150q-100 0 -100 -100v-600z" />
<glyph unicode="&#x153;" horiz-adv-x="1700" d="M100 400v200q0 400 400 400h100q177 0 250 -140q72 140 250 140h100q400 0 400 -400v-220h-600v-30q0 -100 100 -100h450v-250h-450q-178 0 -250 140q-73 -140 -250 -140h-100q-400 0 -400 400zM400 400q0 -100 100 -100h100q100 0 100 100v200q0 90 -100 90h-100 q-100 0 -100 -90v-200zM1000 600h300v50q0 100 -100 100h-100q-100 0 -100 -100v-50z" />
<glyph unicode="&#x178;" horiz-adv-x="1200" d="M0 1400h310l290 -500l290 500h310l-450 -800v-600h-300v600zM200 1500v300h300v-300h-300zM700 1500v300h300v-300h-300z" />
<glyph unicode="&#x2c6;" horiz-adv-x="800" d="M100 1100l160 300h280l160 -300h-200l-100 200l-100 -200h-200z" />
<glyph unicode="&#x2dc;" horiz-adv-x="940" d="M100 1100q0 250 190 250q100 0 180 -40t150 -40t70 80h150q0 -250 -190 -250q-100 0 -180 40t-150 40t-70 -80h-150z" />
<glyph unicode="&#x2000;" horiz-adv-x="955" />
<glyph unicode="&#x2001;" horiz-adv-x="1910" />
<glyph unicode="&#x2002;" horiz-adv-x="955" />
<glyph unicode="&#x2003;" horiz-adv-x="1910" />
<glyph unicode="&#x2004;" horiz-adv-x="636" />
<glyph unicode="&#x2005;" horiz-adv-x="477" />
<glyph unicode="&#x2006;" horiz-adv-x="318" />
<glyph unicode="&#x2007;" horiz-adv-x="318" />
<glyph unicode="&#x2008;" horiz-adv-x="238" />
<glyph unicode="&#x2009;" horiz-adv-x="382" />
<glyph unicode="&#x200a;" horiz-adv-x="106" />
<glyph unicode="&#x2010;" horiz-adv-x="800" d="M100 550v300h600v-300h-600z" />
<glyph unicode="&#x2011;" horiz-adv-x="800" d="M100 550v300h600v-300h-600z" />
<glyph unicode="&#x2012;" horiz-adv-x="800" d="M100 550v300h600v-300h-600z" />
<glyph unicode="&#x2013;" horiz-adv-x="800" d="M100 550v300h600v-300h-600z" />
<glyph unicode="&#x2014;" horiz-adv-x="1000" d="M100 550v300h800v-300h-800z" />
<glyph unicode="&#x2018;" horiz-adv-x="600" d="M100 1400h300l100 -300h-300z" />
<glyph unicode="&#x2019;" horiz-adv-x="600" d="M100 1100l100 300h300l-100 -300h-300z" />
<glyph unicode="&#x201a;" horiz-adv-x="600" d="M100 -100l100 300h300l-100 -300h-300z" />
<glyph unicode="&#x201c;" horiz-adv-x="1000" d="M100 1400h300l100 -300h-300zM500 1400h300l100 -300h-300z" />
<glyph unicode="&#x201d;" horiz-adv-x="1000" d="M100 1100l100 300h300l-100 -300h-300zM500 1100l100 300h300l-100 -300h-300z" />
<glyph unicode="&#x201e;" horiz-adv-x="1000" d="M100 -100l100 300h300l-100 -300h-300zM500 -100l100 300h300l-100 -300h-300z" />
<glyph unicode="&#x2022;" horiz-adv-x="500" d="M100 600v300h300v-300h-300z" />
<glyph unicode="&#x2026;" horiz-adv-x="1500" d="M100 0v300h300v-300h-300zM600 0v300h300v-300h-300zM1100 0v300h300v-300h-300z" />
<glyph unicode="&#x202f;" horiz-adv-x="382" />
<glyph unicode="&#x2039;" horiz-adv-x="800" d="M100 650l280 450h320l-280 -450l280 -450h-320z" />
<glyph unicode="&#x203a;" horiz-adv-x="800" d="M100 200l280 450l-280 450h320l280 -450l-280 -450h-320z" />
<glyph unicode="&#x205f;" horiz-adv-x="477" />
<glyph unicode="&#x20ac;" horiz-adv-x="1200" d="M100 425v200h150v150h-150v200h150q11 425 400 425h450v-300h-450q-92 0 -100 -125h475l-35 -200h-440v-150h390l-36 -200h-354v-25q0 -100 100 -100h450v-300h-450q-400 0 -400 400v25h-150z" />
<glyph unicode="&#x2122;" horiz-adv-x="1450" d="M100 1250v150h450v-150h-150v-450h-150v450h-150zM650 800v600h200l150 -350l150 350h200v-600h-150v350l-150 -350h-100l-150 350v-350h-150z" />
<glyph unicode="&#x25fc;" horiz-adv-x="1000" d="M0 0v1000h1000v-1000h-1000z" />
</font>
</defs>
</svg>
